<svg width="1200" height="1200" viewBox="0 0 1200 1200" fill="none" xmlns="http://www.w3.org/2000/svg">
  <defs>
    <linearGradient id="bg" x1="0" y1="0" x2="1200" y2="1200" gradientUnits="userSpaceOnUse">
      <stop stop-color="#FCEAF2"/>
      <stop offset="1" stop-color="#FAD9E7"/>
    </linearGradient>
    <filter id="shadow" x="-20%" y="-20%" width="140%" height="140%">
      <feDropShadow dx="0" dy="10" stdDeviation="10" flood-color="#D9A0B8" flood-opacity="0.35"/>
    </filter>
  </defs>
  <rect width="1200" height="1200" fill="url(#bg)"/>
  <g opacity="0.55">
    <path d="M200 150L140 100L200 50L260 100L200 150Z" fill="#F7D7E5"/>
    <path d="M600 70L540 20L600 -30L660 20L600 70Z" fill="#F7D7E5"/>
    <path d="M1000 180L940 130L1000 80L1060 130L1000 180Z" fill="#F7D7E5"/>
    <path d="M1120 540L1060 490L1120 440L1180 490L1120 540Z" fill="#F7D7E5"/>
    <path d="M160 840L100 790L160 740L220 790L160 840Z" fill="#F7D7E5"/>
  </g>

  <g opacity="0.6">
    <circle cx="90" cy="350" r="40" fill="#F6D7E6"/>
    <circle cx="1110" cy="400" r="36" fill="#F6D7E6"/>
    <circle cx="240" cy="1020" r="46" fill="#F6D7E6"/>
  </g>

  <g filter="url(#shadow)">
    <text x="600" y="325" text-anchor="middle" fill="#1A1A1A" font-size="98" font-family="Arial, sans-serif" font-weight="900" letter-spacing="6">KYO</text>
    <text x="600" y="420" text-anchor="middle" fill="#1A1A1A" font-size="98" font-family="Arial, sans-serif" font-weight="900" letter-spacing="6">WON</text>
    <text x="600" y="540" text-anchor="middle" fill="#1C1C1C" font-size="52" font-family="Arial, sans-serif" font-weight="800" letter-spacing="6">교원</text>
    <g transform="translate(835 120)">
      <rect x="0" y="0" width="210" height="72" rx="30" fill="#F2B9CF" stroke="#E777A0" stroke-width="4"/>
      <text x="105" y="48" text-anchor="middle" fill="#2C2E2C" font-size="28" font-family="Arial, sans-serif" font-weight="800">수달의 달인</text>
    </g>
  </g>

  <text x="600" y="735" text-anchor="middle" fill="#1A1A1A" font-size="132" font-family="Arial, sans-serif" font-weight="900">우리 수달쌤을</text>
  <text x="600" y="900" text-anchor="middle" fill="#29B663" font-size="134" font-family="Arial, sans-serif" font-weight="900">자랑해주세요!</text>

  <g filter="url(#shadow)">
    <rect x="260" y="965" width="680" height="165" rx="18" fill="#FFF7F7" stroke="#2D2D2D" stroke-width="7"/>
    <text x="600" y="1042" text-anchor="middle" font-size="46" font-family="Arial, sans-serif" font-weight="700" fill="#2D2D2D">네이버 리뷰 이벤트</text>
    <text x="600" y="1098" text-anchor="middle" font-size="38" font-family="Arial, sans-serif" font-weight="700" fill="#2D2D2D">우리 수달쌤 자랑을 리뷰로 남겨주세요.</text>
  </g>

  <g transform="translate(540 490)">
    <path d="M90 30C90 8 108 -12 131 -12C154 -12 172 8 172 30C172 64 139 92 90 116C41 92 8 64 8 30C8 8 26 -12 49 -12C72 -12 90 8 90 30Z" fill="#FFD5C3"/>
    <path d="M70 80C70 52 94 30 123 30C152 30 176 52 176 80V110H70V80Z" fill="#9B654A"/>
    <circle cx="103" cy="113" r="90" fill="#9A663C"/>
    <circle cx="103" cy="113" r="56" fill="#F2C7A0"/>
    <path d="M68 80C76 62 96 48 123 48C151 48 168 62 176 80" stroke="#74533B" stroke-width="8" stroke-linecap="round"/>
    <path d="M81 117C87 112 95 108 103 108C111 108 119 112 125 117" stroke="#74533B" stroke-width="8" stroke-linecap="round"/>
    <circle cx="80" cy="115" r="7" fill="#3A2D2D"/>
    <circle cx="126" cy="115" r="7" fill="#3A2D2D"/>
    <path d="M85 145C101 161 119 161 135 145" stroke="#2F2D2D" stroke-width="8" stroke-linecap="round"/>
  </g>
</svg>
