<svg width="1200" height="1500" viewBox="0 0 1200 1500" fill="none" xmlns="http://www.w3.org/2000/svg">
  <rect width="1200" height="1500" fill="#FDECF3"/>
  <g opacity="0.32">
    <path d="M0 1500L1200 0" stroke="#F7C4D9" stroke-width="2"/>
    <path d="M100 1500L1200 400" stroke="#F7C4D9" stroke-width="2"/>
    <path d="M400 1500L1200 800" stroke="#F7C4D9" stroke-width="2"/>
    <path d="M700 1500L1200 1100" stroke="#F7C4D9" stroke-width="2"/>
    <path d="M0 1200L1200 300" stroke="#F7C4D9" stroke-width="2"/>
    <path d="M0 900L1200 0" stroke="#F7C4D9" stroke-width="2"/>
  </g>
  <g>
    <text x="600" y="120" text-anchor="middle" fill="#2D2D2D" font-family="Arial, sans-serif" font-size="46" font-weight="700">KYO WON 교원</text>
    <text x="600" y="170" text-anchor="middle" fill="#FF6EA7" font-family="Arial, sans-serif" font-size="30" font-weight="700">수학의 달인</text>
  </g>
  <g>
    <text x="600" y="640" text-anchor="middle" fill="#FFF" font-family="Arial, sans-serif" font-style="italic" font-size="230" font-weight="900" stroke="#F25AA3" stroke-width="14">우리 수달쌤을</text>
    <text x="600" y="910" text-anchor="middle" fill="#FFF" font-family="Arial, sans-serif" font-style="italic" font-size="220" font-weight="900" stroke="#F25AA3" stroke-width="14">자랑해주세요!</text>
  </g>
  <g> 
    <rect x="258" y="980" width="684" height="220" rx="16" fill="#FFFDF6" stroke="#2B2B2B" stroke-width="6"/>
    <text x="600" y="1055" text-anchor="middle" fill="#2D2D2D" font-family="Arial, sans-serif" font-size="42" font-weight="700">동네 사장님!!!</text>
    <text x="600" y="1118" text-anchor="middle" fill="#2D2D2D" font-family="Arial, sans-serif" font-size="42" font-weight="700">우리 수달 선생님 너무 좋아요!!!</text>
    <text x="600" y="1180" text-anchor="middle" fill="#2D2D2D" font-family="Arial, sans-serif" font-size="42" font-weight="700">가이 알아가요~♡</text>
  </g>
  <g>
    <g transform="translate(400 1180)">
      <circle cx="0" cy="0" r="70" fill="#C9825E" stroke="#222" stroke-width="6"/>
      <circle cx="-120" cy="-120" r="55" fill="#C9825E" stroke="#222" stroke-width="6"/>
      <circle cx="120" cy="-120" r="55" fill="#C9825E" stroke="#222" stroke-width="6"/>
      <ellipse cx="0" cy="75" rx="135" ry="110" fill="#C9825E" stroke="#222" stroke-width="6"/>
      <circle cx="-35" cy="55" r="18" fill="#222"/>
      <circle cx="35" cy="55" r="18" fill="#222"/>
      <path d="M-60 108 C-25 138 25 138 60 108" stroke="#222" stroke-width="8" fill="none" stroke-linecap="round"/>
      <circle cx="-100" cy="40" r="12" fill="#F4F4F4"/>
      <circle cx="100" cy="40" r="12" fill="#F4F4F4"/>
      <path d="M-120 100 C-105 130 -70 150 -35 150 C-10 150 8 138 16 116" stroke="#F5F5F5" stroke-width="8" fill="none"/>
      <path d="M115 100 C95 130 65 150 30 150 C8 150 -8 138 -18 116" stroke="#F5F5F5" stroke-width="8" fill="none"/>
    </g>
  </g>
  <g>
    <rect x="210" y="1310" width="780" height="120" rx="18" fill="#FFF8F4" stroke="#2B2B2B" stroke-width="5"/>
    <text x="600" y="1375" text-anchor="middle" fill="#1BAA60" font-family="Arial, sans-serif" font-size="44" font-weight="900">네이버 리뷰 이벤트</text>
    <text x="600" y="1425" text-anchor="middle" fill="#2D2D2D" font-family="Arial, sans-serif" font-size="32" font-weight="700">우리 수달쌤 자랑을 리뷰로 남겨주세요.</text>
  </g>
</svg>
